<?xml version="1.0" encoding="UTF-8" standalone="no" ?>
<!DOCTYPE svg PUBLIC "-//W3C//DTD SVG 1.1//EN" "http://www.w3.org/Graphics/SVG/1.1/DTD/svg11.dtd">
<svg xmlns="http://www.w3.org/2000/svg" xmlns:xlink="http://www.w3.org/1999/xlink" version="1.1" width="1080" height="1080" viewBox="0 0 1080 1080" xml:space="preserve">
<desc>Created with Fabric.js 5.2.4</desc>
<defs>
</defs>
<g transform="matrix(1 0 0 1 540 540)" id="66853d69-7e2c-4596-86f0-2dd520e36703"  >
<rect style="stroke: none; stroke-width: 1; stroke-dasharray: none; stroke-linecap: butt; stroke-dashoffset: 0; stroke-linejoin: miter; stroke-miterlimit: 4; fill: rgb(255,255,255); fill-rule: nonzero; opacity: 1; visibility: hidden;" vector-effect="non-scaling-stroke"  x="-540" y="-540" rx="0" ry="0" width="1080" height="1080" />
</g>
<g transform="matrix(1 0 0 1 540 540)" id="ebac5895-2dcf-496d-a61b-37cda52702f5"  >
</g>
<g transform="matrix(1 0 0 1 540 540)" id="a3f1c34b-6db6-4420-86dc-2f16a588d2e5"  >
<path style="stroke: rgb(0,0,0); stroke-width: 0; stroke-dasharray: none; stroke-linecap: butt; stroke-dashoffset: 0; stroke-linejoin: miter; stroke-miterlimit: 4; fill: rgb(15,60,201); fill-rule: nonzero; opacity: 1;" vector-effect="non-scaling-stroke"  transform=" translate(-192, -256)" d="M 64 0 L 242.7 0 C 259.7 0 276 6.7 288 18.7 L 365.3 96 C 377.3 108 384 124.3 384 141.3 L 384 448 C 384 483.3 355.3 512 320 512 L 64 512 C 28.700000000000003 512 0 483.3 0 448 L 0 64 C 0 28.7 28.7 0 64 0 z M 96 192 C 78.3 192 64 206.3 64 224 L 64 256 L 128 256 L 128 192 L 96 192 z M 64 352 L 144 352 L 240 352 L 320 352 L 320 288 L 240 288 L 144 288 L 64 288 L 64 352 z M 320 224 C 320 206.3 305.7 192 288 192 L 256 192 L 256 256 L 320 256 L 320 224 z M 160 192 L 160 256 L 224 256 L 224 192 L 160 192 z M 288 448 C 305.7 448 320 433.7 320 416 L 320 384 L 256 384 L 256 448 L 288 448 z M 160 384 L 160 448 L 224 448 L 224 384 L 160 384 z M 64 416 C 64 433.7 78.3 448 96 448 L 128 448 L 128 384 L 64 384 L 64 416 z" stroke-linecap="round" />
</g>
<g transform="matrix(NaN NaN NaN NaN 0 0)"  >
<g style=""   >
</g>
</g>
</svg>